<svg width="600" height="203" viewBox="0 0 600 203" fill="none" xmlns="http://www.w3.org/2000/svg">
<path d="M63.6924 167.918C62.16 166.81 61.018 165.247 60.4297 163.452C59.8413 161.657 59.8369 159.722 60.417 157.924L62.2907 150.186C62.6253 148.826 63.2425 147.551 64.1025 146.444C64.9625 145.337 66.0459 144.423 67.2825 143.762L73.433 140.535C77.2271 138.566 80.2566 135.393 82.0437 131.515C83.8307 127.638 84.2735 123.277 83.3023 119.12L83.2164 118.734C82.0778 114.08 79.2404 110.016 75.2593 107.339C71.2782 104.662 66.4396 103.563 61.69 104.258L54.8101 105.243C53.4113 105.443 51.9859 105.346 50.6276 104.957C49.2692 104.568 48.0087 103.897 46.9289 102.987L40.85 97.8333C39.3413 96.7066 38.221 95.1393 37.6443 93.3487C37.0677 91.5581 37.0633 89.6328 37.6318 87.8396C38.926 83.8668 38.889 79.5812 37.5262 75.6313C36.1634 71.6813 33.549 68.2817 30.0784 65.9466C26.6079 63.6116 22.4699 62.468 18.2903 62.689C14.1108 62.91 10.117 64.4835 6.91301 67.1715C3.70902 69.8595 1.46911 73.5158 0.532057 77.5874C-0.405 81.659 0.0117622 85.9244 1.71931 89.7385C3.42686 93.5527 6.33231 96.7081 9.99624 98.7275C13.6602 100.747 17.8833 101.521 22.0269 100.931V100.931C22.6991 100.831 23.3571 100.689 24.015 100.532L25.8029 100.189C27.2879 99.896 28.8201 99.943 30.2842 100.326C31.7484 100.71 33.1064 101.419 34.2562 102.402L42.5235 109.54C43.787 110.645 44.7519 112.049 45.3293 113.623C45.9067 115.197 46.078 116.891 45.8276 118.549L45.6273 119.805L45.4557 120.905V121.004C45.187 123.296 45.3323 125.617 45.8848 127.857C45.8848 127.986 45.8848 128.114 45.9849 128.228V128.371C46.7777 131.409 48.3107 134.205 50.4476 136.509V136.509C50.705 136.78 50.9625 137.037 51.2342 137.294L52.1353 138.194C53.3249 139.397 54.1891 140.883 54.6469 142.511C55.1047 144.139 55.1411 145.856 54.7529 147.502L52.2355 158.081C51.8894 159.552 51.2106 160.923 50.2511 162.091C49.2916 163.259 48.0769 164.193 46.7001 164.82L45.1553 165.534C44.5248 165.779 43.9087 166.06 43.3102 166.376V166.376C40.4966 167.858 38.0976 170.017 36.3302 172.658C33.4092 176.838 32.2715 182.005 33.1675 187.022C34.0634 192.04 36.9195 196.497 41.1075 199.412C45.2955 202.328 50.4723 203.463 55.4991 202.569C60.5259 201.675 64.9909 198.824 67.9119 194.644C69.6405 192.278 70.8004 189.548 71.3018 186.663C71.4329 186.013 71.5236 185.355 71.5735 184.693L71.7738 183.008C71.6594 180.046 70.8726 177.149 69.4727 174.535C68.0727 171.921 66.0963 169.658 63.6924 167.918V167.918Z" fill="#EDEDED"/>
<path d="M210.792 75.9893C209.778 72.8897 207.992 70.0982 205.601 67.8766C203.21 65.655 200.292 64.0763 197.122 63.2885C193.952 62.5007 190.634 62.5297 187.478 63.3728C184.323 64.2159 181.434 65.8455 179.082 68.1085V68.1085C178.58 68.559 178.103 69.0356 177.651 69.5362L176.493 70.7925C175.467 71.9009 174.204 72.7631 172.797 73.3145C171.39 73.8659 169.876 74.0921 168.369 73.9763L157.498 73.0911C155.808 72.9515 154.181 72.3857 152.77 71.4467C151.359 70.5078 150.21 69.2265 149.431 67.7231L148.859 66.5952C148.687 66.2526 148.53 65.9242 148.344 65.6101V65.5102C147.215 63.493 145.727 61.6981 143.953 60.2135L143.667 59.9851L143.538 59.8709C141.104 57.8892 138.222 56.5316 135.142 55.9162H135.028L133.926 55.7306L132.653 55.6307C130.981 55.3575 129.406 54.6655 128.076 53.6193C126.745 52.5731 125.702 51.2069 125.044 49.6487L120.839 39.655C120.259 38.259 120.005 36.75 120.094 35.2416C120.183 33.7331 120.614 32.2645 121.354 30.9462L122.198 29.5186C122.56 28.9475 122.889 28.3621 123.184 27.7625C124.48 25.1381 125.15 22.2506 125.144 19.325C125.007 14.3173 122.918 9.56045 119.321 6.06673C115.724 2.573 110.903 0.618164 105.885 0.618164C100.866 0.618164 96.0449 2.573 92.4479 6.06673C88.851 9.56045 86.7619 14.3173 86.6252 19.325C86.6189 22.2506 87.2895 25.1381 88.5847 27.7625V27.7625C88.8899 28.3621 89.2188 28.9475 89.5717 29.5186L90.4156 30.9462C91.1554 32.2645 91.5861 33.7331 91.6753 35.2416C91.7645 36.75 91.5098 38.259 90.9305 39.655L86.7253 49.6487C86.0726 51.1997 85.0383 52.5611 83.7181 53.6068C82.3979 54.6525 80.8346 55.3486 79.1732 55.6307L77.9288 55.8305L76.8131 56.0161H76.713C74.4388 56.4631 72.2665 57.3246 70.3051 58.5574L70.019 58.743C69.9616 58.7677 69.9085 58.8015 69.8617 58.8429C67.2089 60.5409 65.0215 62.8715 63.4967 65.6244V65.7243C63.3251 66.0384 63.1534 66.381 62.9961 66.7094C55.1865 83.4417 72.279 92.7216 74.4388 93.2927C77.0768 94.0883 79.8501 94.3366 82.5879 94.0224C85.3257 93.7081 87.9701 92.8378 90.3583 91.4652L90.7159 91.2368C94.7913 88.7127 97.7733 84.7581 99.0755 80.1507C100.378 75.5432 99.9061 70.6161 97.7532 66.3382V66.3382L94.635 60.0565C94.0115 58.7903 93.6637 57.4067 93.6144 55.9968C93.5651 54.5868 93.8154 53.1824 94.349 51.8759L97.3241 44.5091C97.9259 42.7285 99.0722 41.1812 100.601 40.0851C102.131 38.9891 103.966 38.3995 105.849 38.3995C107.732 38.3995 109.567 38.9891 111.096 40.0851C112.625 41.1812 113.772 42.7285 114.374 44.5091L117.406 51.8759C117.942 53.1814 118.194 54.5853 118.148 55.9952C118.101 57.4052 117.755 58.7893 117.134 60.0565L114.059 66.2811C112.143 70.1105 111.566 74.4701 112.422 78.6646C113.277 82.8591 115.515 86.6469 118.779 89.4237L119.079 89.6949C121.579 91.7982 124.575 93.2299 127.784 93.8544C130.993 94.479 134.308 94.2758 137.416 93.2641C140.267 92.3565 142.86 90.7857 144.983 88.6813L149.975 83.8415C150.981 82.8434 152.189 82.072 153.519 81.5795C154.849 81.087 156.269 80.8846 157.684 80.9861L165.637 81.5858C167.518 81.6104 169.346 82.2187 170.865 83.3263C172.385 84.434 173.522 85.9861 174.119 87.7676C175.334 91.5081 178.41 98.6893 189.666 100.845C192.902 101.302 196.201 100.929 199.253 99.7629C202.306 98.5964 205.01 96.6742 207.113 94.177C209.216 91.6797 210.648 88.6897 211.274 85.488C211.9 82.2863 211.7 78.9783 210.692 75.8751L210.792 75.9893Z" fill="#EC1D35"/>
<path d="M141.275 105C138.666 105.897 136.271 107.323 134.241 109.187C132.21 111.052 130.587 113.316 129.474 115.836C129.474 115.964 129.36 116.093 129.317 116.221C127.525 120.657 127.452 125.601 129.112 130.088C130.773 134.575 134.048 138.284 138.3 140.492V140.492L144.464 143.718C145.712 144.379 146.806 145.295 147.673 146.407C148.541 147.519 149.163 148.802 149.499 150.171L151.387 157.909C151.964 159.704 151.959 161.636 151.372 163.428C150.785 165.22 149.646 166.781 148.118 167.888C146.589 168.996 144.749 169.594 142.861 169.597C140.972 169.599 139.13 169.007 137.599 167.903L130.805 163.734C129.6 163 128.564 162.021 127.766 160.859C126.967 159.698 126.423 158.381 126.17 156.996L124.998 150.157C124.301 145.936 122.211 142.068 119.059 139.168C115.908 136.269 111.876 134.503 107.605 134.153H107.19C102.404 133.807 97.6604 135.258 93.89 138.221C90.1196 141.184 87.5938 145.446 86.8077 150.171V150.171C84.0901 166.447 98.751 171.743 104.429 172.472H104.959C108.096 172.651 111.23 172.057 114.084 170.744H114.184L115.185 170.244L116.315 169.673C117.829 168.912 119.511 168.547 121.205 168.612C122.899 168.677 124.548 169.17 125.999 170.045L135.31 175.755C136.604 176.539 137.7 177.607 138.516 178.879C139.332 180.151 139.845 181.593 140.016 183.093L140.216 184.778C140.261 185.453 140.342 186.125 140.459 186.791V186.791C141.019 190.009 142.39 193.031 144.444 195.574C146.498 198.116 149.166 200.095 152.198 201.323C155.23 202.55 158.525 202.987 161.773 202.592C165.021 202.197 168.115 200.983 170.762 199.064C173.41 197.145 175.524 194.585 176.906 191.625C178.288 188.664 178.892 185.401 178.661 182.144C178.429 178.886 177.371 175.741 175.584 173.004C173.798 170.268 171.343 168.031 168.451 166.504V166.504C167.85 166.19 167.235 165.919 166.606 165.662L165.061 164.948C163.686 164.322 162.472 163.391 161.513 162.226C160.553 161.06 159.874 159.691 159.526 158.223L157.008 147.63C156.62 145.984 156.657 144.267 157.114 142.639C157.572 141.011 158.436 139.525 159.626 138.322L160.527 137.422C160.799 137.165 161.056 136.908 161.314 136.637V136.551C162.889 134.861 164.14 132.896 165.004 130.755L165.133 130.427V130.27C166.269 127.346 166.671 124.19 166.305 121.075V120.961C163.76 102.359 145.394 103.472 141.275 105Z" fill="#402FFF"/>
<path d="M302.744 171.308V156.132H284.15C279.913 156.038 275.773 154.848 272.135 152.677C268.13 150.321 261.036 142.512 258.847 139.414C256.692 136.061 255.614 132.131 255.758 128.15V73.4413C255.594 69.4085 256.672 65.4224 258.847 62.0199C261.036 59.1646 268.13 51.2981 272.135 48.9282C275.777 46.7685 279.915 45.5834 284.15 45.4875H302.744V30.7539H322.955V45.4589H341.106C345.337 45.5775 349.47 46.761 353.121 48.8996C357.126 51.2695 364.048 59.0789 366.423 61.9914C368.591 65.3968 369.669 69.3807 369.512 73.4127V128.121C369.65 132.102 368.573 136.03 366.423 139.385C364.048 142.483 357.126 150.293 353.121 152.648C349.474 154.798 345.339 155.987 341.106 156.103H322.955V171.28L302.744 171.308ZM284.593 134.874H302.744V66.717H284.779C282.217 68.6902 279.949 71.0168 278.043 73.6269V128.15C279.895 130.69 282.101 132.954 284.593 134.874ZM347.299 73.4841C345.55 70.8587 343.329 68.5789 340.748 66.7598H322.955V134.917H340.562C343.034 132.913 345.291 130.659 347.299 128.192V73.4841Z" fill="#EDEDED"/>
<path d="M465.786 78.166C463.792 73.4758 460.427 69.4952 456.131 66.7446H423.777C421.039 68.7921 418.627 71.2422 416.625 74.0114V128.177C418.461 130.937 420.908 133.238 423.777 134.902H456.489C460.408 132.051 463.595 128.313 465.786 123.994L486.54 129.091C485.035 133.237 482.95 137.15 480.346 140.712C475.97 146.894 467.473 156.16 456.317 156.16H422.861C418.628 156.041 414.494 154.852 410.847 152.705C407.028 150.349 400.105 143.082 397.559 139.627C395.504 136.23 394.43 132.331 394.455 128.363V73.2548C394.292 69.2693 395.376 65.3319 397.559 61.9904C399.733 59.1351 406.842 51.4542 411.033 48.8987C414.641 46.8199 418.699 45.6397 422.861 45.458H456.331C467.431 45.458 475.812 54.7236 480.175 60.7198C482.759 64.2788 484.843 68.1745 486.368 72.2982L465.786 78.166Z" fill="#EDEDED"/>
<path d="M576.794 155.233V67.4451H530.78V155.233H508.567V52.3117C508.574 50.7048 509.217 49.1659 510.356 48.0296C511.494 46.8933 513.036 46.2516 514.646 46.2441H592.928C594.538 46.2516 596.08 46.8933 597.218 48.0296C598.356 49.1659 598.999 50.7048 599.007 52.3117V155.304L576.794 155.233Z" fill="#EDEDED"/>
</svg>
