<svg width="30" height="26" viewBox="0 0 30 26" fill="none" xmlns="http://www.w3.org/2000/svg">
<path d="M6.84535 0H6.01844C5.91293 0 5.81286 0.0174169 5.71592 0.0421651C5.23156 0.165567 4.87354 0.571793 4.87354 1.05909V1.50625V2.65081V3.24629C4.87354 3.35694 4.897 3.46148 4.93104 3.56157C5.0768 3.99153 5.5057 4.30537 6.01844 4.30537H6.84535C7.47779 4.30537 7.99025 3.83126 7.99025 3.24629V2.65081V1.50625V1.05909C7.99025 0.474114 7.47779 0 6.84535 0Z" fill="#C0C0C3"/>
<path d="M23.1212 0H22.2943C21.6619 0 21.1494 0.474114 21.1494 1.05909V1.50625V2.65081V3.24629C21.1494 3.83126 21.6619 4.30537 22.2943 4.30537H23.1212C23.7537 4.30537 24.2661 3.83126 24.2661 3.24629V2.65081V1.50625V1.05909C24.2659 0.474114 23.7534 0 23.1212 0Z" fill="#C0C0C3"/>
<path d="M27.3451 2.65076H25.2977V3.24624C25.2977 4.27714 24.3213 5.11578 23.1212 5.11578H22.2943C21.0942 5.11578 20.1177 4.27714 20.1177 3.24624V2.65076H9.02201V3.24624C9.02201 4.27714 8.04552 5.11578 6.84543 5.11578H6.01852C4.81838 5.11578 3.84194 4.27714 3.84194 3.24624V2.65076H2.05796C0.921578 2.65076 0 3.32951 0 4.16633V24.3513C0 25.1896 0.921524 25.8668 2.05796 25.8668H27.3449C28.4823 25.8668 29.4028 25.1895 29.4028 24.3513V4.16654C29.403 3.32972 28.4825 2.65076 27.3451 2.65076ZM26.707 23.6421L2.62097 23.6348V7.36155H26.707V23.6421Z" fill="#C0C0C3"/>
<path d="M17.2807 11.2833H23.6152C24.1651 11.2833 24.6098 10.8519 24.6098 10.3188C24.6098 9.78572 24.1649 9.35437 23.6152 9.35437H17.2807C16.7308 9.35437 16.2861 9.78572 16.2861 10.3188C16.2861 10.8517 16.7308 11.2833 17.2807 11.2833Z" fill="#C0C0C3"/>
<path d="M17.2807 14.767H23.6152C24.1651 14.767 24.6098 14.3357 24.6098 13.8025C24.6098 13.2695 24.1649 12.8381 23.6152 12.8381H17.2807C16.7308 12.8381 16.2861 13.2695 16.2861 13.8025C16.2861 14.3357 16.7308 14.767 17.2807 14.767Z" fill="#C0C0C3"/>
<path d="M17.2807 18.2508H23.6152C24.1651 18.2508 24.6098 17.8194 24.6098 17.2864C24.6098 16.7533 24.1649 16.3219 23.6152 16.3219H17.2807C16.7308 16.3219 16.2861 16.7533 16.2861 17.2864C16.2861 17.8194 16.7308 18.2508 17.2807 18.2508Z" fill="#C0C0C3"/>
<path d="M17.2807 21.7347H23.6152C24.1651 21.7347 24.6098 21.3033 24.6098 20.7702C24.6098 20.2371 24.1649 19.8058 23.6152 19.8058H17.2807C16.7308 19.8058 16.2861 20.2371 16.2861 20.7702C16.2861 21.3033 16.7308 21.7347 17.2807 21.7347Z" fill="#C0C0C3"/>
<path d="M6.06146 11.2833H12.396C12.9458 11.2833 13.3905 10.8519 13.3905 10.3188C13.3905 9.78572 12.9456 9.35437 12.396 9.35437H6.06146C5.51155 9.35437 5.06689 9.78572 5.06689 10.3188C5.06695 10.8517 5.51155 11.2833 6.06146 11.2833Z" fill="#C0C0C3"/>
<path d="M6.06146 14.767H12.396C12.9458 14.767 13.3905 14.3357 13.3905 13.8025C13.3905 13.2695 12.9456 12.8381 12.396 12.8381H6.06146C5.51155 12.8381 5.06689 13.2695 5.06689 13.8025C5.06695 14.3357 5.51155 14.767 6.06146 14.767Z" fill="#C0C0C3"/>
<path d="M6.06146 18.2508H12.396C12.9458 18.2508 13.3905 17.8194 13.3905 17.2864C13.3905 16.7533 12.9456 16.3219 12.396 16.3219H6.06146C5.51155 16.3219 5.06689 16.7533 5.06689 17.2864C5.06689 17.8194 5.51155 18.2508 6.06146 18.2508Z" fill="#C0C0C3"/>
<path d="M6.06146 21.7347H12.396C12.9458 21.7347 13.3905 21.3033 13.3905 20.7702C13.3905 20.2371 12.9456 19.8058 12.396 19.8058H6.06146C5.51155 19.8058 5.06689 20.2371 5.06689 20.7702C5.06695 21.3033 5.51155 21.7347 6.06146 21.7347Z" fill="#C0C0C3"/>
</svg>
