<svg width="27" height="28" viewBox="0 0 27 28" fill="none" xmlns="http://www.w3.org/2000/svg">
<path fill-rule="evenodd" clip-rule="evenodd" d="M11.0171 9.59889L19.6699 17.9261C23.7217 12.695 19.5381 3.80085 13.4627 0.283936C22.5418 2.37017 27.9404 13.2686 22.7417 20.7742L26.6418 24.5103C27.9053 25.9499 25.5344 28.3019 23.915 27.0439L20.2456 23.0309C15.3743 25.2456 11.1599 24.3442 8.14087 20.7919C8.06617 21.2747 7.62891 21.6091 7.05982 21.9679C5.71509 22.8183 5.29761 23.5337 5.02295 24.1804C4.83838 24.6144 4.71973 25.0175 4.42969 25.4095C3.53101 26.6187 2.59937 27.5157 1.03711 27.3008C0.421879 27.4891 -0.0747035 27.1325 0.0593297 26.5301C-0.272457 25.0175 0.810795 23.4185 2.44556 22.5636C2.95752 22.2957 3.42774 22.1761 3.92652 21.8527C4.11768 21.7287 4.29346 21.5936 4.44727 21.4364C5.5481 20.3047 5.27124 19.9725 5.87769 19.4343C6.08863 19.246 6.33472 19.1331 6.62256 19.1198C6.8313 18.7965 7.31031 18.5728 7.85743 18.7655L8.59571 18.1321C11.1577 20.7808 14.302 21.0001 17.1694 19.8529L9.15821 11.5013L5.99634 14.6284L2.63233 11.2333L9.35376 4.52505L15.2336 5.37992L11.0171 9.59889Z" fill="white" fill-opacity="0.7"/>
</svg>
