<svg width="25" height="21" viewBox="0 0 25 21" fill="none" xmlns="http://www.w3.org/2000/svg">
<path d="M3.90625 0.34375H0.78125C0.349414 0.34375 0 0.693359 0 1.125V4.25C0 4.68184 0.349414 5.03125 0.78125 5.03125H3.90625C4.33789 5.03125 4.6875 4.67969 4.6875 4.25V1.125C4.6875 0.693359 4.33789 0.34375 3.90625 0.34375ZM3.90625 8.15625H0.78125C0.349414 8.15625 0 8.50781 0 8.9375V12.0625C0 12.4943 0.349414 12.8438 0.78125 12.8438H3.90625C4.33789 12.8438 4.6875 12.4922 4.6875 12.0625V8.9375C4.6875 8.50781 4.33789 8.15625 3.90625 8.15625ZM3.90625 15.9688H0.78125C0.349414 15.9688 0 16.3203 0 16.75V19.875C0 20.3068 0.349414 20.6562 0.78125 20.6562H3.90625C4.33789 20.6562 4.6875 20.3047 4.6875 19.875V16.75C4.6875 16.3203 4.33789 15.9688 3.90625 15.9688ZM9.375 4.25H23.4375C24.3003 4.25 25 3.55029 25 2.73145C25 1.9126 24.3018 1.125 23.4375 1.125H9.375C8.51074 1.125 7.8125 1.82471 7.8125 2.64355C7.8125 3.4624 8.51074 4.25 9.375 4.25ZM23.4375 16.75H9.375C8.51221 16.75 7.8125 17.4497 7.8125 18.3125C7.8125 19.1753 8.51221 19.875 9.375 19.875H23.4375C24.3003 19.875 25 19.1753 25 18.3125C25 17.4497 24.3018 16.75 23.4375 16.75ZM23.4375 8.9375H9.375C8.51074 8.9375 7.8125 9.63574 7.8125 10.5C7.8125 11.3643 8.51221 12.0625 9.375 12.0625H23.4375C24.3003 12.0625 25 11.3628 25 10.5C25 9.63721 24.3018 8.9375 23.4375 8.9375Z" fill="white" fill-opacity="0.7"/>
</svg>
