<svg width="271" height="298" viewBox="0 0 271 298" fill="none" xmlns="http://www.w3.org/2000/svg">
<path d="M103.235 173.366C102.062 172.52 101.188 171.325 100.737 169.954C100.287 168.582 100.283 167.104 100.728 165.731L102.162 159.819C102.418 158.779 102.891 157.805 103.549 156.96C104.207 156.114 105.037 155.416 105.984 154.91L110.692 152.445C113.597 150.941 115.916 148.516 117.284 145.554C118.652 142.591 118.991 139.259 118.248 136.083L118.182 135.789C117.31 132.233 115.138 129.128 112.09 127.082C109.043 125.037 105.338 124.198 101.702 124.728L96.4351 125.481C95.3642 125.634 94.273 125.56 93.2331 125.263C92.1932 124.966 91.2282 124.453 90.4015 123.758L85.7477 119.82C84.5926 118.959 83.735 117.762 83.2935 116.394C82.8521 115.025 82.8487 113.555 83.2839 112.184C84.2748 109.149 84.2464 105.875 83.2031 102.857C82.1598 99.8391 80.1583 97.2417 77.5013 95.4577C74.8443 93.6736 71.6764 92.8 68.4767 92.9688C65.277 93.1377 62.2194 94.3398 59.7666 96.3935C57.3137 98.4472 55.5989 101.241 54.8815 104.351C54.1641 107.462 54.4832 110.721 55.7904 113.635C57.0977 116.549 59.322 118.96 62.127 120.503C64.932 122.046 68.1651 122.637 71.3373 122.187C71.8519 122.111 72.3556 122.001 72.8593 121.881L74.2281 121.62C75.365 121.396 76.5379 121.432 77.6588 121.725C78.7798 122.017 79.8194 122.56 80.6997 123.31L87.0289 128.764C87.9962 129.608 88.7349 130.681 89.1769 131.884C89.6189 133.086 89.7501 134.381 89.5584 135.647L89.4051 136.607L89.2737 137.447V137.523C89.0679 139.274 89.1792 141.047 89.6022 142.759C89.6022 142.857 89.6022 142.955 89.6788 143.043V143.152C90.2858 145.473 91.4594 147.609 93.0953 149.369C93.2924 149.576 93.4895 149.773 93.6975 149.969L94.3874 150.656C95.2981 151.576 95.9597 152.711 96.3101 153.955C96.6606 155.198 96.6885 156.51 96.3913 157.768L94.464 165.851C94.1991 166.974 93.6794 168.022 92.9448 168.915C92.2103 169.807 91.2804 170.52 90.2263 170.999L89.0437 171.544C88.561 171.732 88.0894 171.947 87.6311 172.188C85.4771 173.321 83.6405 174.97 82.2874 176.987C80.0512 180.181 79.1803 184.129 79.8662 187.963C80.5521 191.796 82.7386 195.201 85.9448 197.429C89.151 199.656 93.1142 200.524 96.9626 199.84C100.811 199.157 104.229 196.979 106.465 193.785C107.789 191.978 108.677 189.892 109.061 187.688C109.161 187.191 109.23 186.688 109.269 186.183L109.422 184.896C109.334 182.633 108.732 180.419 107.66 178.422C106.589 176.424 105.075 174.696 103.235 173.366Z" fill="#EDEDED"/>
<path d="M215.851 103.127C215.075 100.759 213.707 98.6264 211.877 96.9291C210.046 95.2317 207.813 94.0255 205.386 93.4236C202.959 92.8217 200.418 92.8439 198.003 93.4881C195.587 94.1322 193.375 95.3772 191.574 97.1063C191.191 97.4504 190.825 97.8145 190.479 98.197L189.592 99.1569C188.807 100.004 187.84 100.662 186.763 101.084C185.686 101.505 184.527 101.678 183.373 101.589L175.051 100.913C173.757 100.806 172.511 100.374 171.431 99.6567C170.351 98.9394 169.471 97.9604 168.875 96.8118L168.437 95.95C168.305 95.6883 168.185 95.4374 168.043 95.1974V95.121C167.178 93.5799 166.039 92.2085 164.681 91.0743L164.462 90.8997L164.363 90.8125C162.5 89.2985 160.293 88.2612 157.936 87.791H157.848L157.005 87.6492L156.03 87.5729C154.75 87.3642 153.545 86.8354 152.526 86.0361C151.507 85.2368 150.708 84.193 150.205 83.0025L146.985 75.3671C146.542 74.3005 146.347 73.1476 146.415 71.9951C146.483 70.8426 146.813 69.7206 147.38 68.7134L148.026 67.6226C148.303 67.1863 148.555 66.7391 148.781 66.2809C149.773 64.2758 150.286 62.0697 150.281 59.8344C150.177 56.0084 148.577 52.3741 145.824 49.7048C143.07 47.0355 139.379 45.542 135.537 45.542C131.695 45.542 128.004 47.0355 125.25 49.7048C122.497 52.3741 120.897 56.0084 120.793 59.8344C120.788 62.0697 121.301 64.2758 122.293 66.2809C122.526 66.7391 122.778 67.1863 123.048 67.6226L123.694 68.7134C124.261 69.7206 124.591 70.8426 124.659 71.9951C124.727 73.1476 124.532 74.3005 124.089 75.3671L120.869 83.0025C120.37 84.1875 119.578 85.2276 118.567 86.0266C117.556 86.8255 116.36 87.3574 115.088 87.5729L114.135 87.7256L113.281 87.8674H113.204C111.463 88.2089 109.8 88.8671 108.298 89.809L108.079 89.9508C108.035 89.9697 107.995 89.9954 107.959 90.0271C105.928 91.3244 104.253 93.1051 103.086 95.2083V95.2847C102.955 95.5246 102.823 95.7864 102.703 96.0373C96.7241 108.821 109.81 115.911 111.463 116.348C113.483 116.955 115.606 117.145 117.702 116.905C119.798 116.665 121.822 116 123.651 114.951L123.924 114.777C127.044 112.848 129.327 109.827 130.324 106.307C131.321 102.787 130.96 99.0221 129.312 95.7537L126.925 90.9543C126.447 89.9869 126.181 88.9298 126.143 87.8526C126.106 86.7753 126.297 85.7023 126.706 84.7041L128.983 79.0757C129.444 77.7153 130.322 76.5331 131.492 75.6957C132.663 74.8583 134.068 74.4079 135.51 74.4079C136.951 74.4079 138.356 74.8583 139.527 75.6957C140.698 76.5331 141.575 77.7153 142.036 79.0757L144.357 84.7041C144.767 85.7015 144.961 86.7742 144.925 87.8514C144.889 88.9287 144.625 89.9861 144.149 90.9543L141.795 95.7101C140.328 98.6358 139.887 101.967 140.542 105.171C141.197 108.376 142.91 111.27 145.409 113.392L145.639 113.599C147.552 115.206 149.846 116.3 152.302 116.777C154.759 117.254 157.297 117.099 159.677 116.326C161.859 115.632 163.844 114.432 165.469 112.824L169.291 109.127C170.061 108.364 170.986 107.775 172.005 107.398C173.023 107.022 174.11 106.868 175.193 106.945L181.281 107.403C182.722 107.422 184.121 107.887 185.284 108.733C186.448 109.579 187.318 110.765 187.775 112.126C188.706 114.984 191.06 120.471 199.678 122.118C202.155 122.467 204.681 122.182 207.017 121.291C209.354 120.4 211.424 118.931 213.034 117.023C214.644 115.115 215.74 112.831 216.22 110.385C216.699 107.938 216.546 105.411 215.774 103.04L215.851 103.127Z" fill="#EC1D35"/>
<path d="M162.626 125.288C160.629 125.974 158.795 127.063 157.241 128.488C155.686 129.913 154.444 131.642 153.592 133.567C153.592 133.666 153.504 133.764 153.471 133.862C152.099 137.251 152.043 141.028 153.315 144.456C154.586 147.885 157.093 150.718 160.348 152.405L165.068 154.87C166.023 155.375 166.86 156.075 167.524 156.925C168.189 157.774 168.665 158.754 168.922 159.801L170.368 165.713C170.809 167.084 170.805 168.56 170.356 169.929C169.906 171.298 169.035 172.491 167.864 173.337C166.694 174.183 165.286 174.64 163.84 174.642C162.394 174.644 160.984 174.191 159.812 173.348L154.61 170.163C153.688 169.602 152.895 168.854 152.284 167.967C151.672 167.079 151.256 166.073 151.062 165.014L150.164 159.79C149.631 156.565 148.031 153.61 145.618 151.394C143.206 149.179 140.119 147.83 136.849 147.562H136.531C132.867 147.298 129.236 148.406 126.349 150.67C123.463 152.934 121.529 156.19 120.927 159.801C118.847 172.235 130.071 176.282 134.418 176.838H134.823C137.225 176.975 139.624 176.522 141.809 175.519H141.886L142.653 175.137L143.518 174.701C144.676 174.119 145.964 173.84 147.261 173.889C148.558 173.939 149.82 174.316 150.931 174.984L158.06 179.347C159.05 179.946 159.889 180.762 160.514 181.734C161.138 182.706 161.531 183.807 161.662 184.954L161.815 186.241C161.85 186.757 161.912 187.27 162.002 187.779C162.43 190.237 163.48 192.547 165.052 194.489C166.624 196.432 168.667 197.943 170.988 198.881C173.31 199.82 175.832 200.153 178.319 199.851C180.805 199.55 183.174 198.622 185.201 197.156C187.228 195.69 188.846 193.734 189.904 191.472C190.962 189.21 191.424 186.717 191.247 184.228C191.07 181.739 190.26 179.336 188.892 177.246C187.525 175.155 185.645 173.446 183.431 172.279C182.971 172.039 182.5 171.832 182.018 171.635L180.836 171.09C179.783 170.612 178.854 169.901 178.119 169.01C177.385 168.12 176.865 167.074 176.598 165.953L174.671 157.859C174.374 156.602 174.402 155.289 174.752 154.046C175.103 152.802 175.764 151.667 176.675 150.747L177.365 150.06C177.573 149.864 177.77 149.667 177.967 149.46V149.395C179.173 148.103 180.131 146.602 180.792 144.966L180.891 144.715V144.595C181.76 142.362 182.069 139.95 181.789 137.571V137.483C179.839 123.27 165.779 124.121 162.626 125.288Z" fill="#402FFF"/>
<path d="M101.391 252.458V248.313H96.3025C95.1429 248.287 94.0098 247.962 93.0142 247.369C91.9181 246.726 89.9765 244.593 89.3776 243.747C88.7875 242.831 88.4925 241.758 88.532 240.67V225.728C88.4872 224.626 88.7823 223.537 89.3776 222.608C89.9765 221.828 91.9181 219.68 93.0142 219.032C94.0109 218.442 95.1435 218.119 96.3025 218.093H101.391V214.068H106.923V218.085H111.89C113.048 218.117 114.179 218.44 115.179 219.025C116.275 219.672 118.169 221.805 118.819 222.6C119.413 223.53 119.708 224.619 119.665 225.72V240.662C119.702 241.75 119.408 242.823 118.819 243.739C118.169 244.585 116.275 246.718 115.179 247.362C114.18 247.949 113.049 248.273 111.89 248.305H106.923V252.45L101.391 252.458ZM96.4238 242.507H101.391V223.891H96.4747C95.7735 224.43 95.1527 225.065 94.6309 225.778V240.67C95.138 241.364 95.7417 241.983 96.4238 242.507ZM113.585 225.739C113.106 225.022 112.499 224.4 111.792 223.903H106.923V242.518H111.742C112.418 241.971 113.036 241.356 113.585 240.682V225.739Z" fill="#EDEDED"/>
<path d="M146.015 227.016C145.47 225.735 144.549 224.648 143.373 223.897H134.518C133.769 224.456 133.109 225.125 132.561 225.881V240.676C133.063 241.429 133.733 242.058 134.518 242.512H143.471C144.544 241.734 145.416 240.713 146.015 239.533L151.695 240.925C151.283 242.058 150.713 243.126 150 244.099C148.802 245.788 146.477 248.319 143.424 248.319H134.268C133.109 248.286 131.978 247.961 130.979 247.375C129.934 246.732 128.039 244.747 127.343 243.803C126.78 242.875 126.486 241.81 126.493 240.726V225.675C126.448 224.586 126.745 223.511 127.343 222.598C127.938 221.818 129.883 219.72 131.03 219.022C132.018 218.455 133.128 218.132 134.268 218.083H143.428C146.465 218.083 148.759 220.613 149.953 222.251C150.661 223.223 151.231 224.287 151.648 225.413L146.015 227.016Z" fill="#EDEDED"/>
<path d="M176.393 248.071V224.093H163.8V248.071H157.721V219.96C157.723 219.521 157.899 219.101 158.21 218.79C158.522 218.48 158.944 218.305 159.384 218.303H180.809C181.249 218.305 181.671 218.48 181.983 218.79C182.295 219.101 182.471 219.521 182.473 219.96V248.09L176.393 248.071Z" fill="#EDEDED"/>
</svg>
