<svg width="30" height="31" viewBox="0 0 30 31" fill="none" xmlns="http://www.w3.org/2000/svg">
<path d="M20.7485 16.9615C22.4537 18.124 23.6485 19.699 23.6485 21.799V25.549H28.627V21.799C28.627 19.074 24.1837 17.4615 20.7485 16.9615Z" fill="white" fill-opacity="0.7"/>
<path d="M18.6715 15.5504C21.4221 15.5504 23.65 13.3129 23.65 10.5504C23.65 7.78792 21.4221 5.55042 18.6715 5.55042C18.0865 5.55042 17.5389 5.67541 17.0161 5.85041C18.0492 7.13792 18.6715 8.77542 18.6715 10.5504C18.6715 12.3254 18.0492 13.9629 17.0161 15.2504C17.5389 15.4254 18.0865 15.5504 18.6715 15.5504Z" fill="white" fill-opacity="0.7"/>
<path d="M11.2036 15.5504C13.9542 15.5504 16.1821 13.3129 16.1821 10.5504C16.1821 7.78792 13.9542 5.55042 11.2036 5.55042C8.45298 5.55042 6.2251 7.78792 6.2251 10.5504C6.2251 13.3129 8.45298 15.5504 11.2036 15.5504ZM11.2036 8.05042C12.5727 8.05042 13.6929 9.17542 13.6929 10.5504C13.6929 11.9254 12.5727 13.0504 11.2036 13.0504C9.83452 13.0504 8.71435 11.9254 8.71435 10.5504C8.71435 9.17542 9.83452 8.05042 11.2036 8.05042Z" fill="white" fill-opacity="0.7"/>
<path d="M11.2036 16.8004C7.88044 16.8004 1.24658 18.4754 1.24658 21.8004V25.5504H21.1606V21.8004C21.1606 18.4754 14.5268 16.8004 11.2036 16.8004ZM18.6714 23.0504H3.73584V21.8129C3.98476 20.9129 7.8431 19.3004 11.2036 19.3004C14.5641 19.3004 18.4224 20.9129 18.6714 21.8004V23.0504Z" fill="white" fill-opacity="0.7"/>
</svg>
