<svg width="30" height="30" viewBox="0 0 30 30" fill="none" xmlns="http://www.w3.org/2000/svg">
<path d="M15.8728 30H13.9981C12.4819 30 11.2483 28.7611 11.2483 27.2383V26.6013C10.6036 26.3945 9.97734 26.1334 9.37566 25.8207L8.92619 26.2721C7.83759 27.3667 6.09381 27.3346 5.03683 26.2717L3.71183 24.941C2.65298 23.8788 2.62253 22.128 3.71218 21.0349L4.16129 20.5838C3.84992 19.9795 3.59001 19.3506 3.384 18.7031H2.74983C1.23364 18.7031 0 17.4642 0 15.9414V14.0586C0 12.5358 1.23364 11.2969 2.74989 11.2969H3.38406C3.59007 10.6494 3.84998 10.0205 4.16135 9.41619L3.71189 8.96484C2.62288 7.8723 2.65292 6.12141 3.71224 5.05869L5.03735 3.72791C6.09679 2.66244 7.84016 2.63584 8.92666 3.72826L9.37572 4.17926C9.9774 3.8666 10.6037 3.60551 11.2483 3.39861V2.7617C11.2483 1.23891 12.4819 0 13.9982 0H15.8729C17.3891 0 18.6227 1.23891 18.6227 2.7617V3.39867C19.2673 3.60551 19.8936 3.8666 20.4953 4.17932L20.9448 3.72791C22.0334 2.63326 23.7772 2.66537 24.8342 3.72832L26.1592 5.05898C27.218 6.12123 27.2485 7.87195 26.1588 8.96514L25.7097 9.41619C26.0211 10.0205 26.281 10.6494 26.487 11.2969H27.1212C28.6374 11.2969 29.871 12.5358 29.871 14.0586V15.9414C29.871 17.4642 28.6374 18.7031 27.1212 18.7031H26.487C26.281 19.3506 26.0211 19.9795 25.7097 20.5838L26.1592 21.0352C27.2482 22.1278 27.2181 23.8787 26.1588 24.9414L24.8337 26.2721C23.7743 27.3376 22.0309 27.3642 20.9444 26.2718L20.4953 25.8208C19.8936 26.1335 19.2673 26.3946 18.6227 26.6014V27.2384C18.6227 28.7611 17.3891 30 15.8728 30ZM9.66824 23.9748C10.5041 24.4713 11.4037 24.8463 12.3421 25.0896C12.7286 25.1897 12.9986 25.5397 12.9986 25.9406V27.2383C12.9986 27.7918 13.447 28.2422 13.9982 28.2422H15.8729C16.4241 28.2422 16.8725 27.7918 16.8725 27.2383V25.9406C16.8725 25.5397 17.1425 25.1897 17.529 25.0896C18.4674 24.8463 19.367 24.4713 20.2029 23.9748C20.5468 23.7705 20.9846 23.8261 21.2672 24.1099L22.1825 25.0291C22.5771 25.4259 23.2108 25.4167 23.5957 25.0296L24.9217 23.698C25.3057 23.3128 25.3185 22.6762 24.922 22.2785L24.0063 21.3589C23.7239 21.0752 23.6685 20.6354 23.8719 20.29C24.3662 19.4506 24.7396 18.5471 24.9818 17.6046C25.0815 17.2165 25.4301 16.9454 25.8291 16.9454H27.1212C27.6724 16.9454 28.1208 16.495 28.1208 15.9415V14.0586C28.1208 13.5051 27.6724 13.0547 27.1212 13.0547H25.8291C25.43 13.0547 25.0815 12.7836 24.9818 12.3955C24.7396 11.453 24.3661 10.5495 23.8719 9.7101C23.6685 9.36475 23.7239 8.92494 24.0063 8.64123L24.9217 7.72195C25.3173 7.32504 25.307 6.68871 24.922 6.30252L23.5962 4.97098C23.2119 4.58449 22.5781 4.57318 22.1829 4.97062L21.2673 5.89025C20.9848 6.17402 20.5467 6.22957 20.2029 6.02531C19.3671 5.52885 18.4674 5.15379 17.5291 4.91057C17.1426 4.81043 16.8726 4.46039 16.8726 4.05955V2.7617C16.8726 2.20816 16.4241 1.75781 15.873 1.75781H13.9983C13.4471 1.75781 12.9986 2.20816 12.9986 2.7617V4.05943C12.9986 4.46027 12.7286 4.81031 12.3422 4.91045C11.4038 5.15367 10.5042 5.52873 9.6683 6.0252C9.32432 6.22939 8.88646 6.17385 8.60397 5.89014L7.6887 4.97086C7.29408 4.57406 6.66031 4.58326 6.27543 4.97045L4.94949 6.30205C4.56549 6.68725 4.55265 7.32375 4.94914 7.72148L5.86482 8.64111C6.14731 8.92482 6.20262 9.36463 5.9993 9.70998C5.50497 10.5494 5.13158 11.4529 4.8894 12.3954C4.78964 12.7835 4.4411 13.0546 4.04204 13.0546H2.74989C2.19873 13.0547 1.75026 13.505 1.75026 14.0586V15.9414C1.75026 16.495 2.19873 16.9453 2.74989 16.9453H4.04198C4.4411 16.9453 4.78958 17.2165 4.88934 17.6045C5.13152 18.547 5.50497 19.4505 5.99924 20.29C6.20256 20.6353 6.14725 21.0751 5.86476 21.3588L4.94943 22.2781C4.55376 22.675 4.56409 23.3113 4.94908 23.6975L6.2749 25.0291C6.6592 25.4156 7.29303 25.4269 7.68824 25.0294L8.60385 24.1098C8.81202 23.9008 9.24509 23.7234 9.66824 23.9748Z" fill="white" fill-opacity="0.7"/>
<path d="M14.9353 21.5273C11.3516 21.5273 8.43604 18.5992 8.43604 15C8.43604 11.4008 11.3516 8.47266 14.9353 8.47266C18.5191 8.47266 21.4346 11.4008 21.4346 15C21.4346 18.5992 18.5191 21.5273 14.9353 21.5273ZM14.9353 10.2305C12.3166 10.2305 10.1863 12.3701 10.1863 15C10.1863 17.6299 12.3167 19.7695 14.9353 19.7695C17.5539 19.7695 19.6843 17.6299 19.6843 15C19.6843 12.3701 17.554 10.2305 14.9353 10.2305Z" fill="white" fill-opacity="0.7"/>
</svg>
