<svg width="32" height="24" viewBox="0 0 32 24" fill="none" xmlns="http://www.w3.org/2000/svg">
<path d="M3.65551 3.81927C2.63086 3.81927 1.79964 4.65023 1.79964 5.67527V9.41039C0.768009 9.66387 0 10.5879 0 11.6975C0 12.8075 0.767943 13.7315 1.79964 13.985V17.7196C1.79964 18.7448 2.63086 19.5756 3.65551 19.5756C4.68009 19.5756 5.51143 18.7448 5.51143 17.7196V5.67527C5.51143 4.65029 4.68009 3.81927 3.65551 3.81927Z" fill="white" fill-opacity="0.7"/>
<path d="M22.0458 0C20.5238 0 19.2901 1.2337 19.2901 2.75568V8.94194H18.4465H14.4535H13.1601L12.7102 8.93119V2.75568C12.7102 1.23377 11.4764 0 9.95441 0C8.43257 0 7.19873 1.2337 7.19873 2.75568V20.6398C7.19873 22.1617 8.43257 23.3954 9.95441 23.3954C11.4765 23.3954 12.7102 22.1617 12.7102 20.6398V14.4674C12.7102 14.4674 13.0068 14.4535 13.1601 14.4535H14.4535H18.4465H19.2901V20.6398C19.2901 22.1617 20.5238 23.3954 22.0458 23.3954C23.5678 23.3954 24.8014 22.1617 24.8014 20.6398V2.75562C24.8015 1.23377 23.5678 0 22.0458 0Z" fill="white" fill-opacity="0.7"/>
<path d="M30.2 9.41039V5.67527C30.2 4.65029 29.3687 3.81927 28.3442 3.81927C27.3196 3.81927 26.4883 4.65023 26.4883 5.67527V17.7196C26.4883 18.7448 27.3196 19.5756 28.3442 19.5756C29.3687 19.5756 30.2 18.7448 30.2 17.7196V13.985C31.2317 13.7315 31.9997 12.8075 31.9997 11.6975C31.9996 10.5878 31.2317 9.66387 30.2 9.41039Z" fill="white" fill-opacity="0.7"/>
</svg>
