<svg width="30" height="31" viewBox="0 0 30 31" fill="none" xmlns="http://www.w3.org/2000/svg">
<path fill-rule="evenodd" clip-rule="evenodd" d="M10.8393 1.82507C10.5632 1.82507 10.3393 2.04893 10.3393 2.32507V29.0174C10.3393 29.2935 10.5632 29.5174 10.8393 29.5174H13.286C13.5621 29.5174 13.786 29.2935 13.786 29.0174V2.32507C13.786 2.04893 13.5621 1.82507 13.286 1.82507H10.8393ZM3.9458 17.9789C3.66966 17.9789 3.4458 18.2027 3.4458 18.4789V29.0173C3.4458 29.2935 3.66966 29.5173 3.9458 29.5173H6.39246C6.6686 29.5173 6.89246 29.2935 6.89246 29.0173V18.4789C6.89246 18.2027 6.6686 17.9789 6.39246 17.9789H3.9458ZM24.126 6.94039C24.126 6.66425 24.3498 6.44039 24.626 6.44039H27.0726C27.3488 6.44039 27.5726 6.66425 27.5726 6.94039V29.0173C27.5726 29.2935 27.3488 29.5173 27.0726 29.5173H24.626C24.3498 29.5173 24.126 29.2935 24.126 29.0173V6.94039ZM17.7324 13.3635C17.4563 13.3635 17.2324 13.5873 17.2324 13.8635V29.0173C17.2324 29.2934 17.4563 29.5173 17.7324 29.5173H20.1791C20.4552 29.5173 20.6791 29.2934 20.6791 29.0173V13.8635C20.6791 13.5873 20.4552 13.3635 20.1791 13.3635H17.7324Z" fill="white" fill-opacity="0.7"/>
</svg>
